<svg width="46" height="52" viewBox="0 0 46 52" fill="none" xmlns="http://www.w3.org/2000/svg">
<g filter="url(#filter0_d)">
<g clip-path="url(#clip0)">
<path d="M25.3697 -0.000976562C16.3791 -0.000976562 9.0647 7.31345 9.0647 16.304V18.9778L4.52478 26.7914C4.46771 26.8897 4.4375 27.0015 4.4375 27.1153V29.8291C4.4375 30.1852 4.7262 30.4736 5.08203 30.4736H9.0647L9.06503 34.8121C9.06503 36.7376 10.6314 38.304 12.5569 38.304H13.8681C14.224 38.304 14.5123 38.0153 14.5123 37.6595C14.5123 37.3033 14.224 37.0149 13.8678 37.0149H12.5569C11.342 37.0149 10.3541 36.0266 10.3541 34.8121V30.4736H12.2007C12.5566 30.4736 12.8453 30.1852 12.8453 29.8291V25.558C12.8453 25.2022 12.5566 24.9135 12.2007 24.9135H10.7771C10.4209 24.9135 10.1325 25.2022 10.1325 25.558C10.1325 25.9142 10.4209 26.2026 10.7771 26.2026H11.5562V29.1845H5.72656V27.6263H7.92938C8.28522 27.6263 8.57391 27.3376 8.57391 26.9817C8.57391 26.6255 8.28522 26.3372 7.92938 26.3372H6.27979L10.2581 19.4897C10.3188 19.391 10.3538 19.2752 10.3538 19.1517V16.304C10.3538 8.02444 17.0898 1.28809 25.3697 1.28809C33.6499 1.28809 40.3859 8.02444 40.3859 16.304V21.9987C40.3859 28.1919 36.6822 33.6533 30.9402 35.9467H29.2849C28.9287 35.9467 28.6403 36.2351 28.6403 36.5913C28.6403 36.9474 28.9287 37.2358 29.2849 37.2358H30.4202V42.71H18.54V38.304H20.0308C20.387 38.304 20.6753 38.0156 20.6753 37.6595C20.6753 37.3036 20.387 37.0149 20.0308 37.0149H17.8971H17.8954H16.4503C16.0945 37.0149 15.8058 37.3033 15.8058 37.6595C15.8058 38.0153 16.0945 38.304 16.4503 38.304H17.2509V43.3545C17.2509 43.7107 17.5396 43.999 17.8954 43.999H31.0647C31.4205 43.999 31.7092 43.7107 31.7092 43.3545V37.025C34.5559 35.8239 36.9883 33.8513 38.7642 31.2987C40.6682 28.5612 41.675 25.3456 41.675 21.9987V16.304C41.675 7.31345 34.3605 -0.000976562 25.3697 -0.000976562Z" fill="white"/>
<path d="M16.885 15.5923C16.885 17.3319 17.408 19.0033 18.398 20.4263C19.2798 21.6939 20.4729 22.6859 21.8677 23.3163V24.6467H21.8006C21.4444 24.6467 21.156 24.935 21.156 25.2912C21.156 25.647 21.4444 25.9357 21.8006 25.9357H21.8677V27.6938C21.8677 28.0496 22.1564 28.3383 22.5122 28.3383H22.5797V29.8294C22.5797 30.1853 22.8684 30.474 23.2242 30.474H27.4953C27.8511 30.474 28.1398 30.1853 28.1398 29.8294V28.3383H28.2073C28.5631 28.3383 28.8518 28.0496 28.8518 27.6938V25.9357H28.9189C29.2751 25.9357 29.5635 25.647 29.5635 25.2912C29.5635 24.935 29.2751 24.6467 28.9189 24.6467H28.8518V23.3163C30.2466 22.6859 31.4397 21.6939 32.3215 20.4263C33.3112 19.0033 33.8345 17.3319 33.8345 15.5923C33.8345 10.9192 30.0328 7.11743 25.3596 7.11743C20.6867 7.11743 16.885 10.9192 16.885 15.5923ZM23.8688 17.6606H24.381L25.6157 18.8956C25.7366 19.0164 25.9007 19.0846 26.0716 19.0846C26.2425 19.0846 26.4066 19.0164 26.5275 18.8956L26.8507 18.5723V22.2441H23.8688V17.6606ZM26.8507 29.1849H23.8688V28.3383H26.8507V29.1849ZM27.5627 27.0492H23.1568V25.9357H27.5627V27.0492ZM23.1568 24.6467V23.5332H27.5627V24.6467H23.1568ZM25.3599 8.40649C29.3221 8.40649 32.5454 11.6302 32.5454 15.5923C32.5454 18.5146 30.822 21.0957 28.1398 22.2193V17.016C28.1398 17.016 28.1398 17.016 28.1398 17.0157V16.304C28.1398 15.9482 27.8511 15.6595 27.4953 15.6595C27.1391 15.6595 26.8507 15.9482 26.8507 16.304V16.7491L26.0716 17.5283L25.1038 16.5601C24.9829 16.4393 24.8188 16.3715 24.6479 16.3715H23.8688V16.304C23.8688 15.9482 23.5804 15.6595 23.2242 15.6595C22.8684 15.6595 22.5797 15.9482 22.5797 16.304V22.2193C19.8975 21.0957 18.1741 18.5146 18.1741 15.5923C18.1741 11.6302 21.3974 8.40649 25.3599 8.40649Z" fill="white"/>
<path d="M26.0041 5.62631V3.49097C26.0041 3.1348 25.7157 2.84644 25.3596 2.84644C25.0037 2.84644 24.715 3.1348 24.715 3.49097V5.62631C24.715 5.98248 25.0037 6.27084 25.3596 6.27084C25.7157 6.27084 26.0041 5.98248 26.0041 5.62631Z" fill="white"/>
<path d="M17.1955 6.60557C16.9438 6.35413 16.5356 6.35413 16.2838 6.60557C16.0324 6.85734 16.0324 7.26554 16.2838 7.51731L17.7941 9.02726C17.92 9.15315 18.0848 9.21626 18.2499 9.21626C18.4148 9.21626 18.5796 9.15315 18.7055 9.02726C18.9573 8.77549 18.9573 8.36762 18.7055 8.11585L17.1955 6.60557Z" fill="white"/>
<path d="M15.3049 15.0369H13.1693C12.8134 15.0369 12.5247 15.3256 12.5247 15.6814C12.5247 16.0376 12.8134 16.3259 13.1693 16.3259H15.3049C15.6608 16.3259 15.9495 16.0376 15.9495 15.6814C15.9495 15.3256 15.6608 15.0369 15.3049 15.0369Z" fill="white"/>
<path d="M17.7944 22.3354L16.2841 23.8457C16.0323 24.0975 16.0323 24.5054 16.2841 24.7571C16.41 24.883 16.5748 24.9458 16.7396 24.9458C16.9048 24.9458 17.0696 24.883 17.1955 24.7571L18.7058 23.2472C18.9576 22.9954 18.9576 22.5872 18.7058 22.3354C18.454 22.0837 18.0458 22.084 17.7944 22.3354Z" fill="white"/>
<path d="M32.014 22.3353C31.7623 22.5871 31.7623 22.9949 32.014 23.2467L33.524 24.757C33.6499 24.8829 33.815 24.9457 33.9798 24.9457C34.1447 24.9457 34.3098 24.8829 34.4357 24.757C34.6875 24.5052 34.6875 24.097 34.4357 23.8453L32.9254 22.3353C32.6737 22.0835 32.2658 22.0835 32.014 22.3353Z" fill="white"/>
<path d="M37.5503 16.3259C37.9065 16.3259 38.1948 16.0372 38.1948 15.6814C38.1948 15.3252 37.9065 15.0369 37.5503 15.0369H35.4146C35.0584 15.0369 34.7701 15.3252 34.7701 15.6814C34.7701 16.0372 35.0584 16.3259 35.4146 16.3259H37.5503Z" fill="white"/>
<path d="M33.524 6.60533L32.0137 8.11562C31.7623 8.36739 31.7623 8.77525 32.014 9.02702C32.1396 9.15291 32.3047 9.21568 32.4696 9.21568C32.6344 9.21568 32.7996 9.15291 32.9254 9.02702L34.4354 7.51674C34.6872 7.26497 34.6872 6.8571 34.4354 6.60533C34.184 6.35356 33.7758 6.35356 33.524 6.60533Z" fill="white"/>
</g>
</g>
<defs>
<filter id="filter0_d" x="-3" y="-0.000976562" width="52" height="52" filterUnits="userSpaceOnUse" color-interpolation-filters="sRGB">
<feFlood flood-opacity="0" result="BackgroundImageFix"/>
<feColorMatrix in="SourceAlpha" type="matrix" values="0 0 0 0 0 0 0 0 0 0 0 0 0 0 0 0 0 0 127 0"/>
<feOffset dy="4"/>
<feGaussianBlur stdDeviation="2"/>
<feColorMatrix type="matrix" values="0 0 0 0 0 0 0 0 0 0 0 0 0 0 0 0 0 0 0.25 0"/>
<feBlend mode="normal" in2="BackgroundImageFix" result="effect1_dropShadow"/>
<feBlend mode="normal" in="SourceGraphic" in2="effect1_dropShadow" result="shape"/>
</filter>
<clipPath id="clip0">
<rect x="1" y="-0.000976562" width="44" height="44" fill="white"/>
</clipPath>
</defs>
</svg>
